<mxfile host="app.diagrams.net" modified="2023-04-26T07:09:29.246Z" agent="Mozilla/5.0 (Windows NT 10.0; Win64; x64) AppleWebKit/537.36 (KHTML, like Gecko) Chrome/111.0.0.0 Safari/537.36" etag="4lZUjfWKEW2h36ZjSnyy" version="21.2.2" type="github">
  <diagram name="Page-1" id="5f0bae14-7c28-e335-631c-24af17079c00">
    <mxGraphModel dx="1434" dy="708" grid="1" gridSize="10" guides="1" tooltips="1" connect="1" arrows="1" fold="1" page="1" pageScale="1" pageWidth="1100" pageHeight="850" background="none" math="0" shadow="0">
      <root>
        <mxCell id="0" />
        <mxCell id="1" parent="0" />
        <mxCell id="y71cGGiIrZ94dd1hsWOq-1" value="Actor" style="shape=umlActor;verticalLabelPosition=bottom;verticalAlign=top;html=1;outlineConnect=0;" vertex="1" parent="1">
          <mxGeometry x="252.5" y="50" width="30" height="60" as="geometry" />
        </mxCell>
        <mxCell id="y71cGGiIrZ94dd1hsWOq-2" value="用户" style="text;html=1;align=center;verticalAlign=middle;resizable=0;points=[];autosize=1;strokeColor=none;fillColor=none;" vertex="1" parent="1">
          <mxGeometry x="272.5" y="70" width="50" height="30" as="geometry" />
        </mxCell>
        <mxCell id="y71cGGiIrZ94dd1hsWOq-3" value="Actor" style="shape=umlActor;verticalLabelPosition=bottom;verticalAlign=top;html=1;outlineConnect=0;" vertex="1" parent="1">
          <mxGeometry x="412.5" y="50" width="30" height="60" as="geometry" />
        </mxCell>
        <mxCell id="y71cGGiIrZ94dd1hsWOq-4" value="管理员" style="text;html=1;align=center;verticalAlign=middle;resizable=0;points=[];autosize=1;strokeColor=none;fillColor=none;" vertex="1" parent="1">
          <mxGeometry x="427.5" y="70" width="60" height="30" as="geometry" />
        </mxCell>
        <mxCell id="y71cGGiIrZ94dd1hsWOq-5" value="互联网" style="ellipse;shape=cloud;whiteSpace=wrap;html=1;" vertex="1" parent="1">
          <mxGeometry x="252.5" y="160" width="180" height="50" as="geometry" />
        </mxCell>
        <mxCell id="y71cGGiIrZ94dd1hsWOq-6" value="" style="endArrow=classic;startArrow=classic;html=1;rounded=0;exitX=0.4;exitY=0.1;exitDx=0;exitDy=0;exitPerimeter=0;" edge="1" parent="1" source="y71cGGiIrZ94dd1hsWOq-5" target="y71cGGiIrZ94dd1hsWOq-1">
          <mxGeometry width="50" height="50" relative="1" as="geometry">
            <mxPoint x="472.5" y="410" as="sourcePoint" />
            <mxPoint x="522.5" y="360" as="targetPoint" />
          </mxGeometry>
        </mxCell>
        <mxCell id="y71cGGiIrZ94dd1hsWOq-7" value="" style="endArrow=classic;startArrow=classic;html=1;rounded=0;exitX=0.625;exitY=0.2;exitDx=0;exitDy=0;exitPerimeter=0;" edge="1" parent="1" source="y71cGGiIrZ94dd1hsWOq-5" target="y71cGGiIrZ94dd1hsWOq-3">
          <mxGeometry width="50" height="50" relative="1" as="geometry">
            <mxPoint x="334.5" y="175" as="sourcePoint" />
            <mxPoint x="292.5" y="112" as="targetPoint" />
          </mxGeometry>
        </mxCell>
        <mxCell id="y71cGGiIrZ94dd1hsWOq-9" value="系统门户" style="rounded=1;whiteSpace=wrap;html=1;" vertex="1" parent="1">
          <mxGeometry x="20" y="240" width="670" height="30" as="geometry" />
        </mxCell>
        <mxCell id="y71cGGiIrZ94dd1hsWOq-10" value="商品管理" style="rounded=1;whiteSpace=wrap;html=1;" vertex="1" parent="1">
          <mxGeometry x="160" y="310" width="120" height="60" as="geometry" />
        </mxCell>
        <mxCell id="y71cGGiIrZ94dd1hsWOq-11" value="仓库管理" style="rounded=1;whiteSpace=wrap;html=1;" vertex="1" parent="1">
          <mxGeometry x="300" y="310" width="120" height="60" as="geometry" />
        </mxCell>
        <mxCell id="y71cGGiIrZ94dd1hsWOq-12" value="用户管理" style="rounded=1;whiteSpace=wrap;html=1;" vertex="1" parent="1">
          <mxGeometry x="440" y="310" width="120" height="60" as="geometry" />
        </mxCell>
        <mxCell id="y71cGGiIrZ94dd1hsWOq-13" value="资金账户" style="rounded=1;whiteSpace=wrap;html=1;" vertex="1" parent="1">
          <mxGeometry x="570" y="310" width="120" height="60" as="geometry" />
        </mxCell>
        <mxCell id="y71cGGiIrZ94dd1hsWOq-14" value="外部接口" style="rounded=1;whiteSpace=wrap;html=1;" vertex="1" parent="1">
          <mxGeometry x="20" y="410" width="670" height="30" as="geometry" />
        </mxCell>
        <mxCell id="y71cGGiIrZ94dd1hsWOq-16" value="" style="shape=doubleArrow;direction=south;whiteSpace=wrap;html=1;" vertex="1" parent="1">
          <mxGeometry x="210" y="283" width="20" height="20" as="geometry" />
        </mxCell>
        <mxCell id="y71cGGiIrZ94dd1hsWOq-17" value="" style="shape=doubleArrow;direction=south;whiteSpace=wrap;html=1;" vertex="1" parent="1">
          <mxGeometry x="360" y="283" width="20" height="20" as="geometry" />
        </mxCell>
        <mxCell id="y71cGGiIrZ94dd1hsWOq-18" value="" style="shape=doubleArrow;direction=south;whiteSpace=wrap;html=1;" vertex="1" parent="1">
          <mxGeometry x="490" y="283" width="20" height="20" as="geometry" />
        </mxCell>
        <mxCell id="y71cGGiIrZ94dd1hsWOq-19" value="" style="shape=doubleArrow;direction=south;whiteSpace=wrap;html=1;" vertex="1" parent="1">
          <mxGeometry x="620" y="283" width="20" height="20" as="geometry" />
        </mxCell>
        <mxCell id="y71cGGiIrZ94dd1hsWOq-20" value="" style="shape=doubleArrow;direction=south;whiteSpace=wrap;html=1;" vertex="1" parent="1">
          <mxGeometry x="620" y="380" width="20" height="20" as="geometry" />
        </mxCell>
        <mxCell id="y71cGGiIrZ94dd1hsWOq-21" value="" style="shape=doubleArrow;direction=south;whiteSpace=wrap;html=1;" vertex="1" parent="1">
          <mxGeometry x="495" y="380" width="20" height="20" as="geometry" />
        </mxCell>
        <mxCell id="y71cGGiIrZ94dd1hsWOq-22" value="" style="shape=doubleArrow;direction=south;whiteSpace=wrap;html=1;" vertex="1" parent="1">
          <mxGeometry x="360" y="380" width="20" height="20" as="geometry" />
        </mxCell>
        <mxCell id="y71cGGiIrZ94dd1hsWOq-23" value="" style="shape=doubleArrow;direction=south;whiteSpace=wrap;html=1;" vertex="1" parent="1">
          <mxGeometry x="210" y="380" width="20" height="20" as="geometry" />
        </mxCell>
        <mxCell id="y71cGGiIrZ94dd1hsWOq-24" value="" style="shape=image;verticalLabelPosition=bottom;labelBackgroundColor=default;verticalAlign=top;aspect=fixed;imageAspect=0;image=data:image/png,iVBORw0KGgoAAAANSUhEUgAAAGAAAABiCAYAAACvUNYzAAAACXBIWXMAAA7EAAAOxAGVKw4bAAAcu0lEQVR4nO2deZBd1X3nP+cub196X7RLNBJIICTM6sTBECbYAU9scJk4Y2OP1xnHNplMYuyJM4bMVHkYVbxkYoMdqqZmAC+SjSxjU4hNAmx2LSxCO5JQS91qdffrt9/1nPnj9Xt0t3p5txe1SM23iqJ0373n/u7ve37rOfe2YD5w746bUXoDOi/yhXV75kWGOiG+pdScjj+Xg48H7Z5ddyvU1xCAZqAE+/H5OZrceC6SMREBK9IDpJMhXBdKJZ8j2ShKCwcff8YS1gulhHbPru8rwVcAMEMI3az+hlISpDyglLcR+Nm5QsZEBFx/kcslsTINps8jR+Ps6vaIx2MoBW1xKLkQNmCwDK4POXuC8edS+BqUEtq9u3+kUJ8HwAghDHOS8yXS8/Zpmr5FamzkM6t3nhU5x8FEBLx3hUeHKOFKg5TusGlfiM9cFcNXsKqlovS2OLx8At7KwGOHJxh/LoUHYONGXRvo+t8KPglMrXxA+R4oiTBC1UOHQW6RSj14tsmYiIC1bS7vbSuTNCWbXk9yvGSxrCNOKgymBr6CmAm9BTiZh6IzwfhzKTx3bjNEe/qnwEcBMMMI3Zj0EuV7ICXCDE10ylklQ9yp+lC0jj0et3owtBCeB67r4yTSoJ9LMWDjnpDot3+B4EMAhMIIbWrlK99HC4XqFe2w9Jyfo/yfzFnM+K/qdiH4CwTNczH83BDwneeiIhrZAvwbAMwIQtcnvUT5Psp30ULhusWqWotSClB7UWoTGudkNjURZp+A//tqXJT8R1D8EVDfzJc+yh1WvqhT+dIH3x/hqhTK90FJlFR7UfJdQcbsEvBPL6SEGdoKXIUAjDpmfk35IRBaffdREuW5w8of7xEUSkqQPkqqfSi58VwlY/YI+OFrjUK4T4JYDwIRjkyp0IryneGZX7/yZZWwesWXEum5CE3fr5R8CPwHzxUyZoeAf9rZKgy2IVgDAhGKgFaf8oURmtJK3rlIIT0HbcKZP/G9znBXSh0U+A9JVz7IF9e+Xvdgs4yZE/CjVzqFr21HsBJNIMypZ35lFtsI3ZwyLR1xEdK10fTQlOSecS/PnYQ0hVLqkFBqs0Q+yGcverX+wWeOmRHwg5cWC914GsVyxPDMr0f5joMw9HdaEVNCIW0HYRj1WwtULMZxhuNL3Y96WJZyG/jSZT9GiDltxMFMCPiXV5cLXz6DUotAQ4Tr8ONV5evayCp3SijXAU0LYC0Aw+5KN+uPL4ByyntUbvA0kiIh8Qn+07VDAW4aGAFseQR+vHul8PznUGoRQiAi9bodB6EFVL7ngBABlQ/KdRHCCKR8pD+gspl2pBIIbsRTL7Nh20WBbhwQwQn4591rhC9/D3RU3E6UKQ1peOaDQJj1uh1QvguKKXtHZ1znucMWE8BdoaTM9PWAalmfUiEBCkUXSr3A/9x2ayABAiCYC/rBrnVCqG0IGtA0hFlP+qiQTqUXG7TKDdiWGL7OB+lP1ksaFzLb/zyOffWSsDr6/aX5Zb1lf/D27oaIo0Rs+DG+Q1ncwZ3XeoEGngL1W8A9u68QmnwGQQO6Vme2M6x8BZoZQPnSR/le4HSzUgV7gawMQNnF13Hsq0Iag3c09C6NRaNE7XzTfYsH9A7DPwWA4K+JqcfZsLUt0OBToD4CfvTKHwrkNhDJysyPTJ1VqEraiCJYFqJkpTI2A2UuVIKui2YEJM33Tqvc0GJAfqM1k1rSlBIrV65kzZo1CNcOb2jra708Zle7+e9HmTu4+8krAgg2KaYm4J4d1wkpHgdiCL2i/Cl9flX5KnCLQTpOZQYHCZ7VdNMwA5KGLzOn+4GGP28q22uivrF69WqEELS2trJ+/XoMXdO+nOw771PNxYPD1yxCiGfY8OTng9xoIkwu7Q93flAI8StQIaHpUJcPV0jXqfT0g1a5teIsSPAE5dqgGwgt2HVyqP95XPvqi2Ny6GsNvQ3vufRSYrHYqHNc1+WNN94gm83SE2o88XfdyQ4JwzdS9xGxv8xX/3SCBcepMbE2f7jrwwK1CYEhdAPq8cdqWPlKIoyAVa5jI/QgxdnwlZ47vTS1XNytCkPrkjr5u5tPJK9au4ampqbxz1WKAwcO0NPTgx+O524/0UhBaqnhn19CiVu449ruQAIMY3w7v3fHrUJTv6goX69P+YxUvhFQ+Q5CaMGV73uACqx8fK9HFYdWCJT/1w19yYtWLJ1Q+QBCCFatWkVXVxeGU0rds+B0dKnpnRj++QqE2sGGbe8PJkQFZ9rsvTtvE0q7H9CFbtTtdlRV+boesMp1EYJJWssTXFdtsAVMU1HSlYO9p1As+GRDng8sjImurq66Lk2lUqTTaU73ndKvixeTWcxDRxyjGYgDn+D6T5d44v88X78wYyW/Z8cXBeIeQAitqvwpnwjlOigpEZoeKP9WXuW6IPVB5cJptKSHUfX7l8dd9472vLl+/Xr0gDGnVCrx+uuvY1kWO1Xz4e/3xc4b8fPPEe5n+dsbivWM9Y709+66XSj1PaDiCupRpFAox63MRqEFUojy3eFCK6Dyh12WFjRTAlQpv1MVc5e2GNL5dmtf6H2XX0okEgk0RhWe57Fnzx4ymQzZUPrUfz6RbvQUw0pTr+NrN/ONaw9NNU7lCe7Z+fXAyocRyhcBle9VCq2gObtQw2sIAXs8AL7brYq5VbrA/2r6dOiyiy6ctvIBDMNg7dq1LFq0iLSTbb9v8YDXqMvBYUEvRlcvs+GpG6caR+OuzR8XvvN3QCX/rlf5rlNRPiJ4leu6iKB9fSrxAk0PnG6ilC0zp20g/onEoH7dqsU0NjYGG2McCCHo6uriggsuQNil2P/q6EtfGHaPDv/cgOJhNjxx9WRjaGQHV6m39kRa+w6evCmaY2V46lZHxXcPKz9wlVsptALn+r4HKni6CSCH+naj1HnvjVnqz5fFWbRoUeAxJkNHRwfr1q1DoPRvNJ5a9uEG60BFaPUP/O31kwZlnav/7P3AdUXbSe7v6SdcGOCatEtbLEKfNPDHLEkor+K7geBruY6D0I3g3U3pT7VZa+JrS7mXsa0rFpi+/ObCsrbu4jWIYNVyXYhEIrS3t5PJZFjhZ5qvbIn8+skv/sl/mOo6A6V2IMQJYCHAiVyZE28cx9RPcNWiRpIt7exWDfS62rDyKxYijCAtBjViLSCY8is7IKqNuYBwnbdVMX9RSEPe3pTR3nPxJWgB3V4QhMNh1q9fz759+2hFpuu5RuO7n3uY1PFlt1+Q2nNJg1nzJq4vefbYAI/seJPw4V3c5B3hynARTTBc5dbrQob7QgHXAiqXDjfYgi0pViBVWQ71SyB6W2JQ+8C6VYTDwbcOBoWu66xZs4aFCxe+Vs/5tad6+OGHt7uue01P2eexXoen+mzy7mj/EzU03ruwAdWykFe8FAVZR3XsOICqBOqg3c1pppsAMtP3Ep57xR9GCmy4vJXOzk583w+c808XSqm7li9ffudU550R0TqjOp9aHuUvlkZ4rt/l0R6L/fmKzy97kiePDcKxQS5sibO0o43D4RYOO+PPLOW6IzqiwWZwJVOaRroJqGLuRTz3ysWmyx0rI3R2dlIul7Esi1AoRCQSOWtETIUaAZqm1YKTUgpTE1zTFuKathBHix5be2yeOe1SHo7Ke/uL7O0/Qip0jGsXNlFOd7DDT+IOdzeqmZIwA8SKYSjfA00EzpQA8Jy3VCm/PqIp7lhgcdGqtTXlm6aJ4zjouj7qeecT4+Z0I4kAWBY3+GKXwW3LFU+fstna63CsVLGKnCN58kg/QvRzSXOM1rZW3jBa6PErgTpozj6TjAcli3JowARCn2/M8Sfr1wBg2zamaZLL5WhqasJxHGzbJp2uK07OKUYRMFbxI2eIUoqoLvjAgggfWBBhX65iFc8NuLhSoRTs7i9B/zFaIt1ct7CFU/FF7POi1L25ZnhJcVoZDyAz/XtR8rLrYkU+f/l5WJYFVLITy7JoaWkhm82STqcJhaZ3j9lGjQDDMHp830dKeYbi4UwyLkgZXJAy+IyreKrPZmuPTa8lAei3fJ46fApd62NdRwNmcwd7tCaKkwVtNc0lxerl+aEX8N2rlpkud72ntSZnNpsllUqRSCQoFotEo1Ecxzn3CAiFQvvD4TCu6+I4Dq7rAmcqfuyxpAl/tjDCv10Q4bWsy6M9Nq8MevhK4UvFjpMZOJmhMxlmbWcbx6OddMuxD1+pEyoZzzT8smMdxCpeFtMU/22lTjoew7IslFIkEgmGhoZobGxE13Visdic1gJBcUYMME0T0zTxfb9GhJSVmT05GYpLGkwuaTAZdBSP91o83msz6FTO68nb9OSPY+rdXNrZiNu0gL004KnhjGc6DTYAJXNkB1IKjK92lLlsxXk15QshsG2bpqYmBgYGaG1tPaeUDxMEYagUFNFolEgkguu62LaNrL2NMnm8aArBrUuifHRxhFcGPR7tsXkt66IUuL7ile5B6B5kaTrKgvZWDhpNDIr4tB5ADfYdVrD+T5Nlbl2zsKZg0zRRSqGUYmBggFQqdc6kniMxZWdLCEEoFCIUCuF5Xs0qJooNI48ZQnBls8mVzSbjFXjHsmWOZd8manRzWXuabEMnB0VD3Zag8pnnlfSv7go5fHN9C5qmkc/nSSaTlEolwuEwtm2TSqXOWGyfCbot1bMtw7FPdoqrJjpHoonb9uaaPSvUpGuyyReqebBgxXvybnKw6DScLtg7rNvOf7qmvW3btt0phPhWPQJIKXEcB8dxarNsLCY65krFc/0uW3tt9uXO7Lx2NURJtbazP9JBebL54ZT3q+zgyrgmxf3rTBalY0gpicfjFItFGhoaKJVKGIZBMpms57Emha/wH+pTO79zVNFjc6lml4YuS7P/g2sWGo7Qo7Yi6koV8qSSrq/UgO3lThRldqDsRLNFtzln+52elNERQ94l//2qO4P3dqkUbZFIZJR78oc7pFNZRkh/p8A7VvLZ2mPzdJ9TK/AODZVh6CjJ0Ntc0tFCb2oBp0RitADSH9Jzg+0eiL9fJlnWnMJ1XYQQuK5Lc3MzAwMDNDU1YQbtP41Bt6V6vn2E/Y/2s0rZpeWxU28RVuhOON7waslsLacaT2fKPkMlN1VyvMC75qZFwEiMDdqO884byVPFi2Vxgy+cp/PJZVGe6XN4tMeuFXh5R7Lr7T6E6OP8piSitZPDZisKSOX78hnF4o83WXxkbRflcrkmg5SS/v5+ksnktJU/crb3lrylof7ji0NWocmOJMOxgbcRxSFOda7RbS9q7ukpvHe6uoNZIKCKkUG7SkQ1e5rKKmJGpcC7oTM8boF3YCAPA3maIm/RtXgRLzli8fqwxV9emMZ1XdLpNNlsFsMw8Dxv2j6/OtsfO+Uv9Av9eijbv0SFEy1mvr+t8/hO2rpfw3TLHO28BDpXV/ZPzxCzRkAVQgjC4TDhcBjP87BtG897x9dPRcaFaZML0yafcSRP9dk81uvQU65YxaDl0aq7LDcU3760gbbWFmzbRilVC7imaQZSfnW2f/+Y757IFDCHTi329PAK3bNFc89eOo/vJJHtmeBhz0ECRg1uGBiGMSpoj8RkZCRNMW6BZwrF17pCnNfRimEYlEolhBAUi0Wam+t/mb3bkr3//Fa5Z0dPLtlXKKdzrrZcIcx45iSdx3fS0rMXTU6xPDtephEQc0pAFdWgPdIqfN8fV/FAzXVVj69NG6xrDDFgS/RUhMuXtNLf309LSwu+75PJZOra4eBLyWNHenmiO8ORomg/YEc7ClKnXTjcGj/BhYXDWO5JtNYi+XiEXcfKFO2K9TUmwlyyrImybWNpJkcrws1YN2eFgCqEEBMGbSFELaUdWzBVC8DmsEZbOkQ8HicSiZDNZolEIpimOWlvpztb4ie79vD7fk8epoWCSGqG8sV77P38sdnL9e06lHopi0GcZoumdAvNDV3c7Au6MxaGpmgIe/RnTlMqS972w7wALDCsJb0z1MlZJWAkxgbtaqU9UvlVq9A0rWYVVcsxDIPGxkbK5fK4ynel5PH9R3i4j8zLGdnY77eDQFuuBrnVfo51gy8T9Yo0nnclEQS7X3uVaCyEEUlS1CPIRIS4KhKVWXzPQY81sWzhUgzd5LFjjWCBphszXlCYNwKqqFpFVfETVdpVEqr1RvVYPH5mC+NLz/ed/l1voSknTR1oTGkuN8k3uIH9rE2AbeSINC3Dsm0KAnRN0NbeimVZGMLHjMUIY3H44B5O9fajEOiJRloWns/qi7toLIXhOBhCzVh/806AlBIpJYZREUXTNDzPw3VdPM+rtUI0TauR5LrupDn+c4OekZOG3po55l5tHzAvc/azplUjbAjM2DKWrV6PYej0Ht2PKnhI10IzTBIJA19KhABNgGGapNKJylpIVBCOxWhrTKJOVF4HmI3P+c0rAUopfN+vKdP3fQqFArqu11arSqUSlmURDocRQtQswfO8GmljsSSun9SO7z2w5oX7r8wB5fMS0BymVPYI+yGKuUHKuX6K2SFKQ32UhWDZoiWEQxHKvmTIC6MJB8MwaWhsqMQgqRCAkpWveVUgx71/EMwrASOVWFW+YRjEYrGa60mn07UCq+rrw+EwxWJxXAJeLwgKSo/pnt1fPWaYJtFoDN/3KJQdhvp7OXZoDwMDWcxomI7lFxPrXEkiESUtffyeU/jlyhqylJUPCkopUQxvraxO/VmwgHlrjlf79VVFjyyiqseq/w+FQsNuIFrb21NNaUeirAT/44iPVKOf61TOpeAZRKIxBApNg1A4THt7C9GQiadFSKYSla+q+B5v9w7y+MuHMMwQpmliGJXMTaAqa9ZqdIU/E8y7C6pivOq1+nuVrJHn+75/hgXc36fxfL/FkjHjHDhZ4MDJAm3pMCsWlGkMe6zujCB9H8OsjFHZse2ifJcTp3N0D1hcvCRJImyipEQqiSeofINoWI6cp2WAGe3ynTcCqrNfSjnpKpVSCtu2MQxjVFPP9/1RO91eKIW491ABgLDwo5jaGblpX9amL3uSVQvirF7YQtgw8aWPQ+V9BSk9SqUSb/cOcaCnwKHeAl2dCS5dnua8tigCKJYt9h3NQqSVIU8Mae9WAqDSqnBd9wwCRhZlxWKx5n6gonzLsmr/Bjjl6zx4wmNoePkzpay2y5eH2m7ruoIDvQVePDTAniOnaufvP1nk2GmLK89v4IoVKYRQFEtlHn3uTR576RAlu7IeLtU71pOKmZy/KM+PHt7JvsbVsApQM//cz7ynoaZpnpFWVpVfKBSQUpJIJGok2bZdy4gAXCXYkgvz2+5M7XpNaBRVKO/EWpPXvu8CMu6uUQQAWK7P028O8OKhIVYvLfHjh3dSstwJ5cyVXHYcODXmqNJA+SCmvdY57wTA+CRUq91wOFxTvuu6RCKRURbzqBXnwYPZ0QMapt8cTydXdLpIf2TaeCYsx2fnwbGKrRdK4Ps2ujHt9c5zZotAlYSRiEajo5Rf3VJYxZtemBcHHI4XR2dDGuhIWUkZpVf5gN9cQCFQyprJEOcMAfAOCWO7oZ7n1ZRfzUCySuepUpifHsyPM1Ild6++izaZBcwEAgRKTvsteThHXNBImKaJ53l4nleb7bqu13y+lBKp4JflJI+/NThuLaSkpJjPcKy0j5bmDo73Zcc5azagBMqf4KvQ9eGcIwCo5ffV/H8sHuvOciCb5/XM+C1ox7FwykUaW6JY+RyXrOjAcmHPkZk2j8dCCXw5ceSuA+ckAVWMp3ylFPt6Bjk6JCE00ct2AtdM5HPRBcmFLSmuW6YYsnbOPgEKgZoZAbUYUC6XO8eW9u9WKCXxlC6XdjShC1UJxHMQB4RC4PmzYwGFQmFVuVwmGo2SSCRmdSfZbGKijWAjUauYpVf5z58bAhBKKOl7M6nGRrkgpRSlUolSqYSu6yQSCRKJxIw3N80BJJNmcAJNCLxyHt8p43oeUZUjpAucse/dzgRKCaTnT33ixKgRoOv6s5qmvU9KqUGl2ZXNZmvrrslkclSncj4hpzABIQRJYScLfd0MZitfD/iDCxazZskC9p0qs+tw3xmV8fQgBL6cEQG1WXTLLbf8fXt7eyqVSn0/FAqNytssy+L06dN0d3eTyWTOKJjOPsSk/kRKn56ebm33np0cO3GKk8UwuUgHi1eu5oY/Ws/KpbPz3T2hlEDNkgUA3HDDDUXgr4C/+tWvfvUR27b/u2VZq6sT7lyxCqWkmvQtmuGVM6vkEI1qGOEISzuaUNKbsjURCEIJpD+jwSZMQz/84Q9vBjb/8pe/XKSU+p5t2x9yXbeWeFuWhWVZaJpGIpGY0V7MoJBq8rVAgSASidLY2IiUPkLwTjD2Z7E1oZRABgoqgwIOKsQhTfE7SR11wC233NINfFQppW/evPlvXNe9vVwud1Z/l1KSy+XI5XKEw+Fa4J5jq5gyBui6jhkKVSrn4ZUsKWenNZEoD6JJieE6ZceMjpWlpmRQB4VQh3whDuJ6h/jcmsHqSVUJ6i7EhBA+cDdw969//eurLMv6R9u2r/J9vxZHbNvGtm0ymQzxeJxkMjknL8MppeRkLkgJ4eu6roe0MFL62LzzjaJSucyx3pl9j7tl6DjrX910fMhs3HD46o+f1IT6l/GUXA9mNE23bNmSdF33bsdxPuk4TmK8c6pWEY/HZ+39rJ91e/ndRZF8aYJKeInKH0sffTH/H73fX7SiLUrJaGLVsk62vrCfx15+q7bgMg0MAD8DHti+ffuLzMKy/Kz5iYceeujfeZ73rXK5fP54WaIQomYVM/1oxk+PO7lXS3pqMgKKb750dM0rG69JxUzOX9jI3uOZSRdcJoEFbAEeyOfzW3fs2DGrKeCs9YJuvvnmB4EHN27c2CWE+K5t2zd4nleLytUVrkKhgGmaJJPJUStdQaCmSENHIldy2XGwL/AtlFLbgAdM03zoiSeemKt26uw34z72sY8dAj6klNIfeuihb7qu+5eWZY36S3Su6zI4OFiLFYlEItD32ypp6JwsZbyulLpfCPHTp59+elofYg2KOeuGDgftu4C7Nm/e/H7XdTfYtv0e3/drbm88q4jH41O+TjpVGhoQJ4QQP9E07YEnn3yyrm/8zCbOSjv6Ix/5yHbg8ieeeKI5m81usCzrVtd1R3X7RlpFLBYjmUxOYhUz3hGVF0L8QgjxQHNz89ObNm2aUTU7E5zV9YDrr79+APiMUuqzW7Zs+axlWf/Ftu3lI4N2dStKsVjENM1aXTFq23qAGDACHvCoEOJ+y7Iefv7558szfqBZwLwsyIjKXye6D7jvN7/5zYXlcvl7lmX9se/7o3yP67pkMpmaVSQSCaLRKEoGsoAXgAd839/47LPPnp7N55gNzPuK2E033bQXuOGRRx4Jl0qlO13X/YJt22d8SbvaJjcMA1TTpD0Pwwi/ZTjuRuBz27dvn/LrtfOJ+e8tj4NNmzZ9UEr5bcdx1o4M2lVs95rz+/zYhIUYgi/LT6/6wVzLORs4JwmoYuvWrW35fP67tm3f7LpuLSJv85pz+/3YRIXYmzLuredja2a0W+Fs4ZwmoAqllNi8efNXHMf5G9u2Fz/lNGX3etHEK5HFY/NVJYV6H5++4PfzIug08K4gYCR++9vfrrv7zcI/Pl+Ohv3Fq/5g1I9C3CM/vfJL8yTatHBO7YyrBzfeeOPuZ3oKz7pKjd3CcUIa4uvzItQM8K4jYCIIja/wifNz8y1HUMx7GjobUIrN8lOrNs+3HNPBvwYLyCqlvjzfQkwX/wosQHydz646Od9STBfvagsQgt/JT5//o/mWYyZ49xKglOdr4gtn469ezyXenS5Ik9txrV3ctnLvfIvy//Eux/8DJmf+TZQ2Ub8AAAAASUVORK5CYII=;" vertex="1" parent="1">
          <mxGeometry x="138" y="480" width="47.02" height="48" as="geometry" />
        </mxCell>
        <mxCell id="y71cGGiIrZ94dd1hsWOq-26" value="仓库" style="text;html=1;align=center;verticalAlign=middle;resizable=0;points=[];autosize=1;strokeColor=none;fillColor=none;" vertex="1" parent="1">
          <mxGeometry x="141" y="538" width="50" height="30" as="geometry" />
        </mxCell>
        <mxCell id="y71cGGiIrZ94dd1hsWOq-29" value="数据库" style="shape=datastore;whiteSpace=wrap;html=1;" vertex="1" parent="1">
          <mxGeometry x="780" y="320" width="60" height="60" as="geometry" />
        </mxCell>
        <mxCell id="y71cGGiIrZ94dd1hsWOq-30" value="" style="shape=doubleArrow;whiteSpace=wrap;html=1;" vertex="1" parent="1">
          <mxGeometry x="710" y="335" width="50" height="30" as="geometry" />
        </mxCell>
        <mxCell id="y71cGGiIrZ94dd1hsWOq-31" value="" style="shape=doubleArrow;direction=south;whiteSpace=wrap;html=1;" vertex="1" parent="1">
          <mxGeometry x="342.5" y="210" width="20" height="20" as="geometry" />
        </mxCell>
        <mxCell id="y71cGGiIrZ94dd1hsWOq-32" value="" style="shape=image;verticalLabelPosition=bottom;labelBackgroundColor=default;verticalAlign=top;aspect=fixed;imageAspect=0;image=data:image/png,iVBORw0KGgoAAAANSUhEUgAAACgAAAAqCAYAAADBNhlmAAAACXBIWXMAAA7EAAAOxAGVKw4bAAAGe0lEQVRYhe1ZXWxT5xl+3u/YxrGdpjQriNJFrARKo2yghU0alYY3oVDHPg6hSlrIRdMhNZrYugwJaTdTvQuQpl1UvQAJrRlUqH/OVIWcY6djSDOsTTuKV6JGobidtgYSkzZLWBrH+Od87y44dE7imMR22l30uXz/nud87/nOOd97CF8R6DlmAFi9ahbfvFdieNyGLGwL4izlJHW73RaXy6VWVFT09fT0GEvJWW1No3E94bOJNB592AYi4O0RYOzz234qlziPx/OgxWJ5mZl/SEQXstlse39///XF4inAFwA8YM3OWiiVtqdXOWdhscoFceUQp6qqj5lPAajOMf+biDo0TdNLqV2SwNbWVtutW7d+y8xdpkkCOAOgGYAAAGZ+3uFw/KqnpyddDIcoVpzf769NJpMDOeJGiGinrut7mdkN4BoAENEvk8nkgMfj2filCVRVdZ+U8u8AGkwRPcy8TdO0twAgFAr9lZm3AvijmdKgKMr7Xq/3yeVyLavFjY2NTqvV+gIRHTBNs0T0rKZpfwDA+eqrqnqAmV8A4DBtLxLRLzRNmy2rQK/XW09EQQCPmKbLRLRP07QP75arquoWZn4VwDYAYOZhAE+EQqGhu+UqS9BGXq/3GSJ6A8A6k+B5KeW+UCg0voR8xGKxiY0bN54iIicR/YCI7iein2zevPnTWCz2fkHyQs5du3ZVVVRU/J6ZW03Tp1LKp8Lh8JtLEZYPqqp6zEfSGgBg5mAqlXrm3Llz/1mWQJ/P930ArwH4lmn6kxDiqb6+viWtWiH4/f61UsqXAOw2Tf8E8KSu6xfnxy5ocSAQEE6n8xARvQqgmogyRHR4+/btz544cWKmVHEAcPXq1cT+/ftfGRsbmyaiH+P2A/7pTZs2zba3t/8tEol8seHmrKDH47lfUZSXAHju1BJC7Ovr6yt4n5QCVVW/a26gzaYpbBhGR39//2dzBHq93h8JIV5m5nUAQET/SKVSW8+ePZsolpyZ6fjx41ssFsvNzs7O+GJxra2trmQyOQjgIdM0BqBd1/UIAUBTU9NjQogw5q7ob3RdD8wv1tzcXGcYRpt5EZc1TevNRxoMBpWpqan1AL4xODi449q1a2uYWSqKEjxz5szw/HifzxcA8Fzu9UkpmwQA2Gy2d4lompnfNnfYorh+/fpHAPaYxU7t2bPn3vkxgUBATE1NbQdQMz4+TqOjo0eY+dcAms38RWHyDxDRtM1me1cAQG9v701m9iQSCTcRfVKoQDQazUgpO4gow8xV2Wy2K9cfDAaVtWvX1gGAEIKGhobaDMO4h4gyADqi0WimUH0i+mRmZmYnM3t6e3tvfvEu1nX9nUgkki2UfAfhcPgyMx81C3blruLk5OTDiqKsZ2Zx5cqVfyWTyU5zZY7ouj64lPqRSCSr6/o7QAlfM/F4/AiAwTurGAgELMeOHas1DONzIcRUMpm8EovFDjBzFYDL8Xj8aDE8RQuMRqOZysrKn1qt1gwRdd24ceM+IYSdiFanUqnh8+fPg4i6ltrasgvs7u6ubGlpuZjJZI4KIarGx8cP2e32jxVF+fjgwYMzhmEcZuaq5bS2bAK7u7srhRCZycnJR3fv3n3B4XB8KKU8FA6Hv9PZ2Tnb1NS0DcBhlNDaogWePHnSnkgk0plMpmbDhg1D9fX1w7W1tb+TUiKbzXY3NjY6hRCnzPCiW3sHyz52dnR0pE+fPl0RDAYfqKmp+fnExESiurp6DRF9JKWst1qtFwHUSSmHiajF5/O1mKkRXdcjKy6QiGQwGLxls9kaR0ZGfuZyuTA6OgoigmEYIKI6M64Oc98MALDyAgGgra3N8Pv9f7bb7Uin02yxWNal0+mtAOqBueMBIooz8yUiGiiGq+jJAjNbU6nUt4UQDYZhrJvnTgP4gIiizBw344s6dpYicAcAn2HknXDYADQwc8M8e2S5PKXMZvKRuQHsBHA+jz9f/F1RtEBzR84hNT+ZduL2jg0UWzsXRb9Jvix8LbBUlHWAif/dk5ECMctCWQXm2zil4v++xfkEpgCAmcvd/oLI4Uvl2hcIFEJcAgAi2quqqmO+fyWgqqqDiB4HAGZ+L9e3YJWmp6f/4nK5BgDsYOZLXq/3DSJa0mGqGDCzhZn3AtgCYCCRSERy/XmHRx6P50FFUV4HsGOlhOXBgGEYT8z/M7DodMvtdlucTqebiL4HYNUKCksx83uJRCKS79j7X6gg24QYqAZhAAAAAElFTkSuQmCC;" vertex="1" parent="1">
          <mxGeometry x="343" y="480" width="40" height="42" as="geometry" />
        </mxCell>
        <mxCell id="y71cGGiIrZ94dd1hsWOq-33" value="银行" style="text;html=1;align=center;verticalAlign=middle;resizable=0;points=[];autosize=1;strokeColor=none;fillColor=none;" vertex="1" parent="1">
          <mxGeometry x="338" y="538" width="50" height="30" as="geometry" />
        </mxCell>
        <mxCell id="y71cGGiIrZ94dd1hsWOq-34" value="" style="shape=image;verticalLabelPosition=bottom;labelBackgroundColor=default;verticalAlign=top;aspect=fixed;imageAspect=0;image=data:image/png,iVBORw0KGgoAAAANSUhEUgAAANAAAADECAYAAADu46/5AAAACXBIWXMAAA7EAAAOxAGVKw4bAAAgAElEQVR4nO2deXxU1dnHf8+5d/ZJJithExCrLBFwF0QIIIiC1dYarAt2ERCV2qJ1afu+fdP3bVVculgxCLhVsBW6WPcdqFbcsKIEBNnXJIQsk2QyM/fe87x/DAkhmWQms2aG+X70Q3Ln3HPO5NzfPdvzPIeQodfCZWXC9/XX0wFcwqDzAM4HyAWwB0R2Bg6QlJtJUd6XmvaK/S9/2ZfsOoeC/oc52XWIJZTsCmTojGf27CuFlAsYmCSY3II5mxjEzCAQiBlMAIgC/wJeQyEDoG1MeMT27LNPJ/ULdENGQBnihud735tFhvGgkOwSEi4he/asMQGGQk0s6DCYX9Ol/F/nn/9cFafqRkQ0AlJE4N+2DBhgbvd7EsgIqBfApaUur9n8opAYo0h2UQyeCENAl6rQIPGGLlDmXLFiY/S5Rk8kAso19uD8s/vCarVA19H2v2EAPp/Eju37UEUDAVLiUeVuEQkvMcNx+K6//lteq7XKpPNE1YiNeABAkVBNfmlTmK8wSX6pZfbsX8cm58Qz8rRcmM0WCK8PQ0QjhiiNsBk++P2AYQgMPGkQBBtJqVtGQEmk5brZc1nyk2afYYmVcDoiDCZV55MU3fhxy/XXfxyfUuKLopjg9wN9hBcX9pOYehLjt1OAS/vWQdMATSMISs5gKjOESxLea6//oyD+oaKxPVFlSgLrJiGtdns2LV3qSVS57YlkCHfB0BbYbDboBmBoEtIgsMFYdqkPP3kVONBsw7ZaDQaZ8F8TgW1HgHEnAS9vA64aCVhUwKMBXx0Gzh8IHGoCdtUBO+uAEQWAzwDKP4ns+2R6oCTQcu21ZQK4PpHiAQDBILNfKr7m5hr3NdcUJLLsaAj0MkCBXofZwzXMHNSMZh9hwz4NJzk0+P0AGLCZgNOLgO21wFc1gd7htHzg5BxAISDbEvi9jwOwm4Bz+gPnDgDybMDgnMjqlhFQgvFef/3NAmKBossImyx6TBrbTKq6P1nl9xRdB/x+YI83F+UbLPjLFiecQscFJ5tRcdgCTQusxrVowPt7gBvOAD7cDwwrAP62GdjTAFQ3B3qhf2wJ9EQEwKwAW2sAtw/w6ZHVLTOESyDea689FUJ8avLL7GTXBQT2mcQ++4oVgxNabARDuNMLWmA223BuXh2+d5YZigAG5Jjwq9c9eG17DnQdqDY0SMWEMX0DwhiQBWyqBs7sB2hG4FplU6C3AYDDHmDLYWDi4MBQT5cRfp/IbssQCd7rrvtCMTCqp/s78UIK0gxBz1ifWzE3UWVSGUtwz567k231cDpzIKSBHJMGTQcONZrh08TRJW0DtYoBKOZ4VbtLMkO4BOGdPXseMQb3FvEAgJBsAmGW77rrRiawWH9Pb9i//wDqauvQ0KRjZw1hVw2hyaPB5/XB29IE95EtACXnUVaTUuqJCPNNhpQWhQSoF1mzqAZnawqeBnBegorcC+DUntyg5Y3Afs0AtHYXCYGnV7UAtuGASM6jnOmBEsSsTz6Z9Ozh3fpB9qFBSEild4yeSTIEaKj32mtnJKI8lniqxzeRAISpm/+T1w9keqAEIWwtN75ac8Dxas0BnGrPxhUFA3Fmdh4gGVZJiNdGajgoBudrqvgZgFfjXpjAIpaoJYFSAH3BsIBSdy6eshVPNa4YM/gfAH+r/TWLUHBJfn/MKBgAMwScEFAiXA2KFr+JDGtenoP++EdfcmqQmiTe+u4EZXhRThYIl508ZPBmm9XWp6mpCQYztnrceLlmP3Z6m2BSFeRYrLBAJPzNxkJ4tBbPzt98+eWXCS46pcnMgRLEP7/YszzblX36wjtuK7ziipkAgOzsLBQU5AMAvmyqw+/2bsEj+79CLenwUGK7IkWyk4W4OqGFpgGZIVwCqfrkn+MFi/dZMjb85z8YdXox1q//CCtWPt8p7Y0DTsXZjlz0pcTsbTABmkq1tpUr8xNSYJqQ6YESiGBlCgCQIJxz9lmwWCyYNGkiLppSAgCYMfMSnHPOWQCAJw58jWeqdsGdoJ7o6CJGLpeVZZ6JHpBZhUsgxDyag/T53/1uKcacMRojRwwHACxXVXz44cf4qOEwvtdvKLIT9J4joibf9u1DAWxPSIFpQOZtk0CYKOiOPxG1iQcAxo09FwBQYLLAkcg9DskSwMmJKzD1yQgoQfCaNSrAYe3AjxwxAvl5uSgwWyETaLUgiIikTKiLRaqTEVCCOGJtPhWAKZy0JAjjLxyHApMFSgLXeSSgSCEaElZgGpARUIJgIU/pSfoLxp6PbNUMawJdlYkAQ8r6hBWYBmQElCCEyv16kr6gsADnZOVBBFt1iBPMgGI2ZwTUAzICSgC8Zo0qpbi2J/domoZT7FmgxLo/1Fl3765MZIGpTkZACeCIvekyMM7qyT2VFV8jEIk0MUgiMNhNa9d6E1RkWpARUAKQRNMA9MiNu2nbTiiJHL4JGMT0UsIKTBMyAkoABB7V03ucVfWwJXAFjhVqZMg3ElZgmpARUAIg8F8A1ISbvqWlBVaPH5TIHgh0xPbcc2sSVmCakBFQAig47/LHNIER4abf8v7H6Ge2Jsz1W1epCeDHElJYmpERUILof843awB8Hk5a/xdbYUnQ8I0JkILc1hUrfpuQAtOMjIASCq0IlaLmcA1Ol2aYEuQOpKuinph/kJjS0o+MgBKJUJ/D8bFlOrHzy80otNogEjB6Mwh+InrFunLlm/EvLT3JCCiBFJ5zySGA7usuzfj8flAT0CxMYEOl/ZYVz14f98LSmIyAEkyB6PtrEL7o6nN19yGo/jifdUOAZhJ+28qVPbLPy9CZjIASDJ1zjgYpSgEc6PiZONIA5eDh+K6+EeBXRaVPyh7Z5mUITkZASaDw/JnbDOYJAHa1v25Z/yVUb7dTpKhgQdJvEj6r3zc857nn6uJW0AlERkBJou/5l+9iiAtAeAUAqMUHZU8lhBGf3sdQqEVXaZNtxQorrV6d8fmJEZmoPL2Amo9eusGy5pOl5i93WVQttvMfSYBUhZsJq6wrEncKw4lCRkC9BO8NN2wkYJjwG5ZYnODAAAyV3FLQfjaMOfY//3l99LXM0JGMgHoRntmzS4kwn0ymM0kzXMKvi56I6ahVAaRCjQB2SyH+x/6nP/0jfjXOkBFQL8Uze3YpKcrtrOvnC0X1C023oNU/SDIo4L8DJoJUBWA1QbKEPiivzrSt+grbihXvJfs7nAhkBJQCeG+44VIp5Qjum30tq+Js+HQQM2SWFdJlhcyxQebZYBQ4AeLFfSYsWJDsOp8oZAIrpgDWP/3pNQCvVa1bnE2Es7tLS5wJiphIMsvY6QbRjmRX4UQi0wOlKMQGzLIOCnsg2AeCAYYKVTbM4NevyoWibKNpz3+Y7HqmOxkBpRhmvQYOYzdUbgaTCmIdgUXrozDmQ9ANYKnxW6WVNG318C4zyxA1mUWEFIHfKnVJslaQ1AcQ9PBvJKrB1FV9iNB7TjZOIzJzoBSAX742F0wVQnp7Jp7A3fl486qtcalYhoyAeju8ptQJs1YF8IDIMgABGMBvlGZiHsSBjIB6OeznrxFmUPouIbKD6Lv8xlWXxaZWGVrJzIF6Mdqr335JUZTLKGYB5lmHyZlFk5/ORB+NEZkeqJdS949pZ6iKMjN24gEAUqA3vxDDDE94MgLqhVSsKjbbVPsaxFY9AEBgXMhvzhof43xPWDIC6oUUaEVPmc2mnDhl7wDkU3HK+4QjI6Bext4nL7wmx5V9bew7n3YwDeY3S78dvwJOHDIC6kXseXLCSIvZ/KTJFGcDEYIZwKPxLeTEICOgXkL14klOAv81Pz/HGtfe5xh5/PbV1yWioHQmI6BegteqL7PbrSOESFiTWCHlHxJVWLqSEVAvYN+T4xeA+Lu5Oa44LLx1i8qvl85OZIHpRkZASWbPExdeyMDDWVnORIsHAFxQ8ItEF5pOZASURPY8eeFQIv4HALMrOysZAgIk+vHbpSMTX3B6kBFQktjx+NkuAl4GUJDjykYytAMAINjBND9Jpac8GQElAV5VqpjM1lUAjyAiZDkdSKJZogrJP0xW4alORkBJYF/zwT+AcTEA5ObkIIFHoXaFh1+96uJkVyIVyQgowex7cvwCMG4FAEURsFrNoGQbxRMKoeDa5FYiNckIKIHsfXLcdAZ+3/p7Xm4uFEWJe7k6h1EG0Yy4VyQNyQgoQex/6oIzALEKgAIAZrMJZrM57uW2GGbsaCpCo24DgK4DIxCs/FrpsLhXKM3ICCgB7F1+wemS6S0A2a3X8nJzIER8h24e3Yy9ngLYFR+cagsadRt2NRfB4CDNzjBBFZfGtUJpSEZAcebAE+OHQdDbAApar9lstrgP3Ty6GftaAuIZaD+CJt2GAy15sCk+KBT0CHArWF4d10qlIRkBxZG9T1xwsUF4H0BR++t5uS7E0+atVTwO9XjxuEzNyDc3QpddlE3H1zNDaJK/gJpmMIP2PzHuXFbENWDchg4vqSynEy6XE0TxEdCxnseLgfbaduLxoJ+1Drua+8ArTTALHdlqC/LMTe17pDqQmJGJaBo+mcikMWDH42e7VNU6nQgz9j6FS0mgT1ezdWeWI27iAYBqf04n8TAAnzRBQmCg7Qg8hgVuzYZavwMFlqZ2d5MZMMYCyAgoTDI9UITseXp8sZA8k4EZAI1HGC+jwsJ8WMzmuNq8GSwgSKJRs+GgNzBsyzZ5sb8lDxahY5C9BgKyLW2Q+dCLdPHqK+JWwTQj0wOFyb5V42yGm6YIIWYSeAZLDOYevH+yspwwqaa4iKfSmwNBEn0sbigk4W4nniJL4DzhgdYj2O/Nx15PQZuIulhMGBvzCqYxmR6oG3Y9NXaIItWZIJ4JYBIAWyT5WMxm5OdHuGlK0MBdB1Y85M2BW7NDgpBvbkQfixt1fge80oQiSwN2NBeh0NKIHFMzPIYF+1ry4VRaMMDW5Sn3TTDhVJq8urLnlT3xyPRA7eCySer+wfqFzDwToJlgHgGKPCa71WqB0+GA2WyKTDyMeoCdXb3nDnlz0KjbMNh+GC3SgkqvCwSg0OJuS6OShFuzIsfUDEEMMGASQXueAIQmaBgHIHO2ahicMAI6+NJDBRqbLpUsB4KplgnrT778x1/uWj62jyqUS4nEzH3Qp4HZFbgjPOEQCIoqoCgKFEXAbLbAarFAUQQAimaz1AvIN0DKZWDu1E6Vvlw06lacZKtBneaESgb6WhtQ6Q1Uv1VETtWLOs0BADjic8Kq+FF4dFgXFMnZIDEWGQGFRdoLiJlp70uPLPBLfgBgK4EAAoRei33PXtqgKmo2AOIOghFCQAiCIhQIJSAQIQL/mlS1TTBEBJaBu4n46BwnFiNjroMi/heSO1kHVPpyUe+3o8DsRr2WhQbNhlxTE1wmDxo1C2r8WQACIlLJAIEhmTDAVhuoZ3fFEtlBckoMvsAJQVoLiJlpz4t/eB5AaafPFBeIpav9NavFArvdBovFAhBDISXgasABYXS1AECi1Z46ZlPKJjCNB4si4Phz7gPDNityTE047M+GQ/HBoXjhlWZsbyxClsmLvqb2PVEjcs3Nx+oaVvF0Rqy+SLqT1pYIe196ZAGAUhBBmK1QbVkwOXKh2pwQJhuk40wAgNPhQL9+fVBQkAeHww5VVaAqKkgQBBGEEIlzt2a4QfzfNH31LoBdALcJqNLrQoPmwCBbDRyqBgDQWaDZsEJAop+tHoXmBuSamtDX2oAafxYO+7J6XgdJjfzWd86M2XdKY9K2Bzr40kMFfuYHVHs2zM5ckNL5q+r+AtjNh5Bl8SQnHkFnvABeo2l/Dbg8sMwGhGidjzlVH+o1Bxo0O1RhwCo02BQ/NKnALDRUel0oNDegybDBoXhBAJp0K/LNjYEFhHARMEHSOAD/ifk3TDPSVkAamy412V1Wc3Z+l2msSgucNgL1ApdQAAYYO2j66u+2XWHKBlit9OXAqviRY/JgoK0W+1vy4FB86G+rxT5PPmyKBiLAZfKg2p8DAYkm3Yb+1lpkmVp6PrBkdkLQmJh+uzQlfYdwinWkKSuv2yQm/SAEtySoQiEg1NH01ad3uJh9yJtjqtccqPTmokGzw6l6MdBWi2bDgkPeXKhCor+1Fh7DCq9hRq7ZA51V9LfWIjsS8Rzjmui+0IlB2grI4nDa2w/L/JqO9z7/Cv9Y8zHWflqBWncTzNoBhLtcHWckTVtd2PHiV839RjXqNtMQezVyTE041EFEXsMEq/BDERI5aiOyVA+O+Jxt4okKhuQ3Ss+OLpP0J22HcMLiaGz92a/puOsPK7C/+kjb54oQ+P6kfMxOvuHKARCKO15ctmzZhCZ9+6DirH2o152wCD9yzc045M0FEBiutQ7nAMAiNFT5cmMjHiAQ7gq4HMCG6DNLX9K2ByJVrWn9+aOK7ceJBwAMKfHEu4ex6UBPT72OGQxGNXTzSJq2+ridzWXLlk0wDOO0k2y1vnotC/V+OwwIFJobYFW0Tj1RveZAZSzFE6idCcyzYpNZ+pK2Alq/86S2U61r6txdpvvqgJaQ+nTAC8JLNH11Ec1YeVzllixZMlFKOVRRlF2HWnIHa1LApvjhNczY0VwEi/C3Defq/bY2EdkUP5xqjI8+JZzML1+bG9tM04u0FNCPHmHL+j0DF7ZoARvM3CxHl2lPLox/VJwA5AehEYQdUGgWTevsMrBs2bIJAE4B8IphGJVE0i45EBjEYEKRpQFFlgb0tTYgx9SESl9em4iG2A/3bKk6rCqTHyZ/JlpPN6TlHMjmqX9XA4l12wfjkhHbMfq0wVCEgCGPN6IcNrg/Rg+16MxNGhFM4Fj8PVgHCx+ITQD8YOwG4SPAWAuIjTRt9Zdd3slcS0QmZu4jhHA4hNdsEhIaG7ArflT5XBAENBsWWIQfDKBOy4LLHNVqWzdfBVkguhrAynhknw6knYDuuq9+voQ8nUD0xaG+AICSb+zB1RdfgOdef78t3bDB/XHLVRe/1JSbvyC3ZkUuiM8AMB7E/QEMAGAH4ABgRcCNwQxCEwALGF4AXoBbAGoEUA9CHSTvAsRuCPkFDPqCLlldG06dy8rKRL9+/azz5s2rWLp0KQBcaBjGtv62Ojroy4dJ6JBMyDF5cLAl4PujswMDrLVwqt54+6RMi1fGWxdP+w8zp6TZEBF9PuzWt87sFTuIseLu+2tdkkQVmC3tr6tCYlBug0dtfmftwf0bOTvL/tmMiec9N2zyVV8lq66trFq1ylxfXz9T1/WaW2655T0AWLp0aTEzj7+kaOPDOpNzkP0I9nvyQMSwKRpq/TFaqg4HQj0kz6Tpf/0g1ll/9ejUXrGHECnDF7xNadUDSdC7HcUDALoU2Hkk1/7gPXNntl5bmNiqBWXVqlXmurq6GQAKVVX1tF5v7YmaDLOln7UBBIbLFDAIjelSdXg4QTQdQMwFlA6kzSLCnfcdWQjg1K4+J+I3ElidkLSKR0ppZeZdCAwZ25g3b15FkcV9uNLrglu3g4iSIR6AoYIwJ3EFphZp0QP9/DdNRX7y/4a6drl2sxRPJLRSXVBWVqYWFhZa6+rqpkoprQ6H46Xm5uaTpZTHzQXcr90wLktpdAjiNk/ThIunFYaD3/rOmTTtbxnj0g6kRQ+kq8Y7BOouXkH2gz/LWZ2wCnVD//79vymEGCmE2OlwOF664YYbmoUQbma24ai7TllZmfnz2kFzD/uzLK2uCRahISsZ4gnghCEyZwgFIeUFdOf9tT8Hy8HdpelNwzdd1w8BOHXu3Llf3nDDDc0A4PF43EIIevzxx20AUFZW5h+RcyjviC/barBArqkJQxzVyYwAo0Dh65NXfO8lpYdwd99fO0iSWMjMzm6SxXz4Vl5e3kdRlBxFUbINw9B1XXfrun7gtttu84W6V1GU7QBGL1myZOz8+fPXA0BDQ4PbarWypmkOAB4AYImzAEBCQIFMfvgkJvCbpSV08ep1ya5KbyKleyAJ8TqYC0Iki+nwbfHixWcoitJfSsnNzc17DMM4LISwWiyWC8rLy4eEuv/QoUO1UkomolFLliwZBwBlZWWSiJpsNtsgAFi2bNnoGn/WSX2t9TBR0mz1OsAugDKLCR1I2R7ongeOLDQMHhjq1RzL4Vt5efkkKeWOefPm7evw0QEAm5cvX37e8uXLec6cOXu6yqOsrEwuWbKkiQNxFooXL15Mt9566wfMvNcwjBGPP/54dqF6ZGqRpaExx9QcgT92vCACuBTA7GTXpDeRkj3Qj8qOZEsp7gch1AMWs+HbkiVLLqmqqnr/1ltv7SieNubMmfOxz+eTS5cu7XZ33TCMNUKIDVLKt1VVHbl06dILhBD/EUK4iajwnLxdTXnmpkQZ6fUEL79x1WXJrkRvIulD60i48766f0HgQoSKrUvY/eDduSdHW96SJUsuycvLe2vWrFlGOOnLy8sHKIpSOG/evM/DSDtECDGViDbPmzfvAwDgt2c9C9lLJ+2El2na6m/GIquMKU8S+On9Dd8lyCUAXCETA589eE9uVF6VS5cunX7w4MF3ysrKejQZKS8vHyClLLz11lvDFpFhGB/fcsstX/CbpV8D+EbElY4HBA5EDMJOmrb6rFhnz2+WpoRZD128+jjNpN4QjuQKhCEeYvIy4cVoiopUPABw8803HxBCHF68eHHIN+zNN9+8WwjxekFBQcA2j9AIkBuEBgDJXEXQAa4Hww2JP4NpdjzEk8qkVA905/11fwXjClDoxQ8GahTwtxfdk/d+qLTBiEY87elJT3SMMvHIT76+UpL4jssmxw4skIO/USSpfx7DMBi6QTCrDEuXIecjw2DA4yWYTdxsUVENls9DUf9OU5//JLYldSZVe6CUEdA9D9ZPMQz+G4CcMG8xHrwnN6JVxvLy8ulVVVUhxbNq1Spl8+bNXFZW1k20dmDZsmUDDcPInz9//sau0gwct9CW1eKeQkyXA7gMQP9g6fpkM4YWGTi5UGLkAAPD+hsYlC9hNQNeP0MRBJuZESrMnWSg0QuogqAIxraDCj7cruLzPSoq69QF/3hj+eLuc4gtGQHFmTsX1deBOVzxgMD/euCevJKelhNKPEfnK6dJKfsLIVrPqW8yDGOf2WyumDNnTlAfoK5EdNqY+QNU6AsA3AQgYvdph4Vxch+JU4oMfKOvRPFAHScXMvw6kOuQaGoRaPASahoJB2sF9tYI7DsisPWQwJ6a4xf8BNH4TZ8vS6j1dUZAceSu++seZtAtAFvDuoFQD+ZFD96Td39PyikvL58+fPjwdyZPntxJPIsXL3aqqjoVQJ9uiybadPDgwQ+D9UrtRTR81JyzhcBCAFejl+3H+a0tru0frew6kEQcSFUB9fpFhLvvrx3EzPPDFg8AMHQi5d2elNOdeB577LFcRVG+hXbiYWYPEe0jokoppd7u+ul9+/a9uKysrNPfdu7cuQdefnn7WVOnL/xUCHwK4Dr0MvGAsCPR4kllelfjBUES/QkdfGVCQ9kP3O36ONzUy5cvvyg7O/vtyZMnd9rneeyxx3KFEN8kIisAEJGbmdfNnz//UGsaZqby8vJRQohziUghokH9+vU7F8BHrWlGjp53Pkg+vHNf/XiH3YSCAjtqajwdi0s6BH452XVIJXq1gH72QO0E3cC5PR1oEvP6cNMuWbLkHGbeFGyTtKN4mHnvaaed9nbHXoqIGMAXjz/++EEA30KgZx/1xBNPbH7g0X9nqZIeZsi2mNfNHg02mwlOpxlNTf6efbk4Q6AXkl2HVKJXD+EMSX86GiGzB7CXiMJ6iy5btmwgEfnmzp1b1fGzID3Pvry8vLeCDfFauemmm2oAfAYAUkrljbe+vlOVYjODvtsxbc0RD3JcFoje1QL7C3IGRrTsf6LSa3ugOxa5vwdp9I9gmaNeY34nnIRSyj5ms/lgkI+IiKa3F09OTs6bHXupNWvW5ADwTp48uS2i4aFDhzZZ7flTt2yp/n6L1xjR3czY5zNgt5nR1Nw7eiEi/N/atdHte51o9K73XzsEG48wwRw6Zac784Xq2xZmYpff7+80YS4rKyMiMgNdi2ft2rXnCiFmCSFmrVmzpu1F9Pzf9o395NMDv2jx6iNMpu7/vD6/AbO519iM7rQq4qlkVyLV6JUC+umi2l8A1Cm6Tnhww0N39m0OnS6A2WzutNxcVlYmnU7nC1LKNw8ePPhGMPEQUesJbmqfPn0EABo5es5tJOgdXTeyAYQ+tKuXLNwSYLCgmzZsWJqUOMepTK8cwhHoRqBzeKqwYGwNOylzo67rLgROhjuO66+/3g2gU+/UXjxEJJl5TXFxsTZyzJx7AdwjBMFiCfxZ/Vr3xttms4DXm/wRk2Sev+U/y9+O9P7S0sVOv1+ZCIFzmFEMYBgAJwImqFsg+J9njal6IpTFRirS6wR05311C8EoivR+FseWjkPR0tJSo6pqLoBOiwjBaC8eZmYA75SUlOwuHj3n/xi4BwByc45tVzWHmNtYLSpq65J8wBfhV1s2PrG8J7eUlq4ye/X6ccTGZIAu8mk4H4HQyMHyHwqmmZ99XjRr3rzHZyxdelNa9XK9TkAg3I0e7/sEYMCtEoVtgrJw4cLdjz322NhHH300f8GCBUe6S/v666/ntRcPEb1dUlKya8QZc37BjF8AgNmkoKjPsUD2dfVdh0jIz7PB3eiDTNI7mYDDDFqw+fNlq0KlLS1d7GzRlVGCMQngKT6tdnwghFhPVnhoamU1fg7gVxFXuhfSqwR0+73uy5gNNdLzfolIGoYR9vwHAG6++eaPysvLLwLQ7RBG0zSv1WrViIh0XV87derUXaePmXOlZPwaAFRVYMhgF4QIVL6u3gufL/jwzGZVoSgCR2qT0vt8Bua/6j5+dOvWJ9sOISst/a1N0xz9peQBUHgYQ4wg5pEARvo0DBRtaonG+osXlJauum/16lm9Y9kxBvQqASnCeBHRtBBLIqGGFdC9laOboO8sWbJkxvz581/tKt03v/lNT5djSa8AABqTSURBVEVFxUoAKC4u9o8ePb+PDn05EBDP0CE5bStqLS06Dh1qCpqPzaYiO8uCquoe6TwcJIMaCdxMQrQQyCeE2qgoapNJMXlNZpvP6civtpqtksHDAHpi2IhzcxliAIH7+zS4AA4sKzGB4rPCUeDV68cBSJvIPr1GQHcuqnsTTBLgKNZ1SQiJHgnoKDx//vzXQomouLi47c1pkPEQgNxO4vHq2L23HpI7P4ARiucQgC3M2CcE9tttuTkOW9YAk9lWKEjkKorZIYTIFkJkA+RCCGfDQK1a31FxE0qXEBvnIyOg2HLnfQ3XgI3zAES1KUIgk88SkYAAgG+66abXAHQrIgAYOWZuMYNnBxXPnnoYRlTi+Ryg94n5A6nwB1v+88ReAHzxxX9yWOyedwk4L7Kv11sQYcWVSBWSKiBP5SNjQdzvf540nouFZwUTV/3u9pxIBQQiYmYOQ0R8DwDkuCyxEs9BApbojBVbv1i+K1gCi81zc+qLByCWwce2KUrSNlK91b+/TZBczxJ/tVm0mKxFEaPfj8qOZEeVBxFXVla+vnTp0kuDfT5q1A+HEnANADQ1a9A0A41N/i7FY7eZuhNPLRg/9jTop1RsXP5/XYknUC+cG+FX6lVIEl1+x1QkKT2Qr/p3VzHj9wCgCBb52Q3YX1MYdb5M0EwqXAiyAdoTysrKZFlZ2RtLly69dN68ea+1/8wQyl2t8zSvV8fWr7vu8Ow2E7KyzEHFw8DLQtfnVlQ8XRlOnQjk495iutBDVJMVhYPPgMXuYhLK/07y/+7m6oMVx3nmVrvdlX2yuW+y6hgO1W6qHHnGnDJIbhJS+cemTUt3JNwjlXc9ZfXZGraBcFLrtZVvT8FX+07q7rZwcbPB4x/6Rd6mWGRWVlYm+vfvP71VRMPO/GF/RYpdQGgbve7EA+DhzRuX34keGPNccUX5TUy0JNz0vQXVYsXg4ouhmgLbRnu2f4hNn/wt2dWKBUyM6xI+hPPZG25tLx4AIeMjhg2RJAorXlxYlJWVyYMHD77ROpxTpbgRUYuHf9tT8QAAs/oCgJQzhTlpxBSo5mN7rpo3baZAJAWGJn4IR7ix46NjyBjpmJkQXsDFsGkdzi1ZsmzGI+Uf/jDUYofDbobTaeqq59nmb7b/HBGYkZ5y3rfVyh0fvNNcdzBuh/7Gmtx+w6Aox8feKuw/HMwMpsCfQBq6e8eWNb9LRv0AgAEXMa4B2puP8ZMg6jKEMzEMBh0WmlyVUAH5Dv22mBkjOl5vbgk/3EEIBGLYA7VSVlYmR5wxRxs80DWk5kgLPC3BzbkK8m3Qddnlapsg3LR9+x9DHoESDJOqvjNg2IQhut/DhualptoDaK6vhLc54kXHmGKyOmC2ZMFkdcBic8Ge2w+KMEMxHd9hu/IGwpU38NgFQtbw0TNHPviznFkJrjKKx8y7kCD/zkDrBNxDjO9VfPHEX8PNI7E9EIlvB7vc0ByR6VuQ/KESx15AACAYN+470Ig+hXbYbCr8fgM+nwFVFTCZBBwOEzweDfUNwfVBwPObPl++NpKy77i3ZjiD+xNgMZntMJntsNhzkdd/OAzdBzDB73XD11wPX0sD/N4m+FvckEZs7TbN1iyYLA6YbVkw212w2FwwWx1QTDZIQweDIUgB9cTNlkFEPOmn99dd8dA9uf+MaYW7YcToOTcyZDmA1i5yHxFdXrFxWQ8CYCZYQEx8TschkE8zweOLTQ/EYDNBxFxAw8+7IZ99+DaYUVXdDKfTDItZgcNhAjPg9xs4XNMCrRv3BWYR8TBFUZThUoLb2wgSEUgxQRwdIpmsDjhy+kJKA8wMIRTovmZAKJC6Bqn7Yeg+GLoXhq5BGlrbv63piQRIUUBMUK0OmG1OmMxOKCYLpKFBUS0IPPGdRSKUyB8lBgoJchGAuAto0qQy9XD9voeY8eN25X+gGLhy06ZlYVnltyfBcyDh6Dj8r64LO1ZiSIhJMQh5McuwNV+v5XoQt41Fmpr86OFU+JPNXywN282iM1wMIkfodAQhjjWpyXr09Jd2oyhmBpgRWBLno//xUec/ggAFjgLqYNGrqBE4B/cEEkV33F838eF7cv8VryJGjbo593Dd/ucZ1H4e+ZTWbLt5S4RD6wQP4WQFmKa2v1RZG3EwzuBFHBvPxi5P4uuiuZ8Zj0Z3P51NUZo5tUJHxdHrImoycgTjXgAXxiP7UaPmDTeE/0WATj16SRL4pxUbn/g9ovANTuwyNuGtjpd2VfaLbRHM+bHM7/TT550CRGUFUN/i1kP63ISqRpT3pwaEUXfce2RkrLMtHn3jJVLID1vFQ0ADgWZUbHzid4jSsT6hArLUK28D2Nz6u5QC2w8EjaEeBSKmXZoURpSrQ/zC7t1Pd3IZ7xk0KLr7UwMiOIWgBbHMsnjM3NuZ6BU+tr2xTWd5fsXGZTE5+jOhAqJTb/MJwbMB+ABg446haPHHeGxNMnaTKgAgcXVU90sRVe9z16LD/cGcVhbMXcEMwUTzy8o46ufyG9/4kWXkmBufZPDDOPqcM+hNRZrGbv3iybDjZoQi4ZYI5sKFn5GUZ2/cccoHb392VuyNuxhRGZO2Z9SoecMBHhNFFvUk68OKUdc1phEQSBsPzlAQs8djaYjqNPDTT59TZHK0vAvQ91uvMeh3RbkDZn75ZXld1JVsR1KMSS39bq/46f21iwk0Cgh5UHBPccYqI4NkdL0P+IWKitVRPfzMcjggrL0mBlbcIQcTfgJgaSR3jxxz45kSeJGA1t1aDeD5WzYuf3JL7CrZRkIE9LN73fk+qdmtZPFLoft11etXddqi4/i9jZjQ41DA3eZ1VTS3M8ViX4PO6tHJFOkA84C7FtWMeODugh498yPPuLGUmJ5hwAYEAqcA4sqKjUvjFq44ZgL66YOVDiEtFxkGny8EnQfQABAXMpCrs64pijD87BcACTKswoBUQBQPy8KYPGwjzrxxMGRUq1+6ZvH26IiVYDAwptctOccZJjjA4lYAYS4olImRYw78D5h/eayfpo1Q6fKKDUv3xqeWAaIS0E/vq58iBL7DkDNhiAHM7BeCjvYAgU26QOOTEvi59VHg1r2ImM1XjkHaXYsOZz1wd2Fj6LTdYNCMqDZLCB/E4pwdIjoFQeIrpDMEKMT4AcIQUHHxLU6p7n8GwJXHrvLfVPZ974sNz8Y8cktHIhLQnffW3gxBPyVwH2Y4AzJhhHP4b/xhDQFznqgEJIhmRuXAJvn1aMoHgLsWHc5ijuGQNIVgIu2ORXXfevju3C6PWxlx5o2DJftfJMboYzeibPMXJ/0fkJgoqD164G+/132aIvQXGehHQHZvfC8yYIiAQen+SPMYOG6hDZ7GKdHVQ4l6n8GQ5uGCZAvC8EFKQ1wKYyGAoAIqHjPvQshgltTLw7akjgVhL2PfsajuSkXobwA0jEBxGHrFBgosV0VlUJrV0ji5dSIaIY1bhtV1eSJ3uAiSI2JlwpOKMPN5dzzkLuh4/agl9bvtxLOPiMYnWjxAmAK66z73HQK0DKAhca1NDCAAeiA+WsQIyTOjrMbHWL066s1PljyKCWEYkaYpRESGflPrr5MmlanFZ9z4eyIsx1E3BAY+EAbOrfi8Z24IsSKkgO5+sH4uyCgDc8ytnOOEoOh6IGLCjGgqQAj/iMlu8xF0duz83VMSi2DcCrRZUr/KTD9u9/lTWrNtyqZNy3vshhAruhXQHffV3CINfphjuDmZABRARLw5W3zmD0ZE29OyFGEHuA/BsBjlk7Iwka30hheuNYT/IwZa3RAkgW/fvHH5jZF6+MaKLhcR7rmvfopB/CAiPCkhiaggjnjYI1mZGe0rX4H6YZRZBCD4TxgDhC44fGCba+umN54GyAQELKkBurpi4/KYGINGS1ABLfxtQ57ul6/TMXfXoDDQLEAesHQAR2OSg7yBXR7oCAylus0j1jBgYoq8xxQSMzk6BX0VC3urOx+onQBJzhPHhKcDzNi19T1s+fxlYubWZ2ibzvLyWBqDRktnATGTaVHDZg7+4BtE8DDTBjDvFAL/qq58f2fl7hfGGi315xnSfyqkUWi1F7mcOcN1u2sosnJG6opqlSaLyxSYnsQdgqSIhnBnnPH9HI2jduiKyfyHGRMJ0VslpyLS0PHlJ3/D/l2ftl0zW5yfGC2+6ZtjbAwaLZ0EdOcDdSsZ4jinNAJ7JWi/IHpTN8Qfvnj3yipd1xcy0S8hZSCaJFHbUK/ZvRPN7p3HDaO+fc19ONQwDESAYcRXR4Ijc2nws+ni6E6HAIgoNgsITFMYyD3RVhB83kZseO8Z1NXsabt28rAJcvgZM994+OcFvUo8QAcB3XFvzXAwXQZw23UGmpjpyYd+lvvj0tJSperw4d8TMBfMAoCpo+980EJUFReMboaqbsS2fYXYsqcQPl2FYcTnBUsUmYkQM8+I1riVGTFZQGDwBAIoFkH3UwV33QF88q+n4PU0AABIKBh17pU4aeh5AsAlAP47qRUMwnECUhT1KWY+OvzhBmbapgKz7v9Z7u6SyZNvr6qufghCaGA2hyOcVoYMHghVDbzYTzvpME476TD+s60/KnY5oaixX6NgFhEIqEwQ7Q8aUD5cCGio2Dggaqv5uxbVn8PMDQA6bSKmG40NVajaXwGvtwH7dnwMaQRO9bNYnDhrwveQVzikNemZXeWRTNoEdOcDdSUseSAIOhhuNsTND/0iZxUAlJSUvMrAWCIiMPfYrOSUU4Z0upatrsdXn/4bw88ug1DMIBE7Mzoi7vEiQvGYfecwqE805UrQR7GwwTLAJQpgTfflg8aGKvz7jd/DMI4/CjM7pz/OKfkBbPZjI3EGqu++v27Montyo7bwiCVtT62QXCtBmmDcv+ie3LausmTy5D0sZV+KQDitnBpEQJu3fI3m+q+x4Z3rcPKo25DfdxyEEqP4cBGswjErBCHbDsAlklarpf4nBFhC3iuVbS1+158Fx2YBQWGMTbG9t4io2l/RSTxZrr64YNqtncJoEWA3GEMB9E4BLbon70sAQ9t/WDJ58nYwD6IoJgaqqmLwoIGdrm/esq3t511fPgJFscBVcCYUNRoTtKNwz/aBxo0bZ1Nt2zVi3kxSupgom4AxCEM8R8na8PHqsh7XMwgBC2y6/ERYvrbaOxuMnDJyctAYdATYpDj++ewNdDluKpk8eQ+Yo44G037+00pdXQOqqmuOu7b98wdx2tn/hay8kVCU6EREJLrNoLS0VKmurp7CRDMImA7mYZBHI9xHFjOt30UXXVT0zjvvRG1Swqz8CJDyRFg8KBpYDLPFAb8v4LbjzO6DvieNDpqWAbPC1OssM4IKqKSk5FWWsm80PU8rweY/FV99HYiQ2YFtG36NURf+ETZn5x6rR3BwS+pJkyapEripurr6dhANbft2MfiezOwEEAObLPoJYuRV29sxmay4YNoCVO77EjZHDooGjoLSZYhgBohicohULOlU25LJk29n5rEUgQ9KUZ8+GDxkCHJycuB0ONDU3Iyzzuj80tjSbvjWkS//fRvOu/jvUb2AOUgMgSlTpgwwpPwnAWfHQjAdMFpaWg5Gm8kd99dNxInQ9bTDkVWAU0ZODiMlQUoMiXd9espxAiotLVWqqqsfoh50PU6nE5fNnImx48ahf7/jo4wyMw7u+wrtx/OGYWD79m6OyWTGrorFGDT8+1DUSE3aqNPcxZDyBQBnR5hh9zCvXL9+fUu02YiA81hsYx2nESSi8tGKC8cJZeKkSX8E0bxwVtyICJdecglmzZoFuz34Xo7f58Hhqt3HXbNYnaj4ajeeefppNDV37bJ+1kXPQDVF5rfHhHpixDbAYpxh8AFiFILoRPQ+DZfDD96TG9VWQ6xpMwWYOnWqi4C54YjHZDJhwa234vvf/36X4gEAr7ezQKw2J0omTsQDDzyAYcO6nhPu27oCmi+yw6NSTTwAQKABGfGEoveF92oTkK7rC4+a53QLEWH+TTdhwoQJITP3+zydrtlsAUOHgoIC/PK//xsjRnQ6sA4AcHj/WxBKuKvIGU4MRK97II7ZvBHNRhiuB5dccklY4mFm+LzHC0g1WaCox4owmUy4+6678Iv/+i8cOHCgUx4Htj2Hk4b/IKZWChmOh1mDobVAqFYIMkNKHwzdA6uVMHiACy0+7rTmQgRofi+k5KMRtwiKqoLoWNtaLIym5oDhsCEJHo8XmiYBIUBChYAAIMAwjp5ZFPCAl1IDKWZDEWYfgQQAwYAApAAdO5igt6ACwPhp0/rD7+8banXK6XTi6lnhHVag+VvQcTPQauu8uW632zF37lz86le/6rS03eTeCSn9UDICigt+Xy0aazej5sA78Lh3QdPcADOcTice/eMfYbd3fURkTfUB+NoN0bNchch2dX00k8fjxYIf/QhNTe1iaRJBkAoSJghhAgkTSFEBCTH6gvtPh8XeoqsWv8vt8wOF/rIy6nUxwlUAEIZxeTiJL5s5s9s5T3uCzX9ah28dGTliBMaNHYsP1h9vCdNU/xV0vSkuBqcnOobWhEO7/4mqXS92+iycdibqmSW93W7HzBkz8PyqdodVMEOyBkgNx0VgYW78+N0fnPuvNWuiPVcp7ggAIF2/sL0/T1eMHTcu7Iw7zn+EUGAyd70KOXXq1KDXhcjMq2MOMwzpDyoeILx2jmSTfdwFF4SXkCgbzOFsDiUdFQBIiOGhEhYVFXXa5wnGRx99hOeffx4t3haYTSpGnT4cF02+EK6c7G7/6COLi+FyudDQ0HDcdZ+nCiZzyi2q9Wr8viPYVbEk6GfhtvN/Nm7CP194GbphQFUUXHnlFZg0eVq39/Tv1w9Fffqgqro6dCWZg9v09DJa++GiUAkHDx4cMrOPPvoI5UuWoLqqEk1uN2oOH8G7a/6N+x54FFZr98bFgginDO1sK9jSGNfY4CceLOHzVKPh8IagH4fbzn969i+ora1Fo9uN2tpaPPXMSnz0UehzlAeFkT8AEFGsjy6MC60CChlHLScndC+watUq6H5fW08jBEERhOZmDx767R9C3p+b1zn0nKdpD6TsejKboWcYhhe7Kh7r8vNw29nQ/G3tTEQwND9WPf98yHvDyR8AUiUOYauAarpNBcDpCG1W49e0oMM0QUBNbWh39uzszpYHXs8hcEZAMcPj3gNvc+ctg1YibWcigl/Xu7ijZ/kfzfBIeAmTS6uAQroOd2d204rZbIaUna2sJTOs5tCLAW5359NAfM2HYmItnQEwjBZU73ut2zSRtrOUDIsldBuHkz8AIManrceLVgE1dJsKQEN9fcjMzjv3XASLqWa2WHHNNdeEvL+urnMv5fUcgs8T1Etgd8gMMxyHr6UaRw69122aSNuZCTjv3PNC3ttxkahLiHpdBJ5gqADAzNVE1K0Tzr59+0Jm9q1vfQtr166F2+2GoEDPYzZbMG/uHJx5ZuiYELt3BbfS3vTvhW0/M/MH/1q3bnzIzDIcx8SSkn8TUch15MjaGXBlu3DFFVeEvHd/GPkDADN3Pc7sRQT2gYi6dtA5yqHKStQc6X5YarFYUF5ejmHDhiG3oBADBgzEbbfdhnHjQq//b922DbVBeqCOMFARMlGGThBRWGYwkbTzsGHDUF5eDoule1O1mpoaHKqsDKu+qdLOgR5IUd4nw7gC3ZyJw8z49NNPccn06SEz/eUvf9njivz7/TDOgWVuJKJ1Pc48AxhYS8zfBVG3+wnxbOdPN2wI6okcpBIp084CAIRhvAIg5Hk2r7zyCmQczuusrq7G2++8EzohkU3z+f4e8wqcAGg+399BFJY7QDzaWUqJV15+ObzEKdTOAgDWrl27G0QhZ3dVVVV4773uJ6GR8OyKFdDDWAIF82ex8Pw8EVm/fn0LmD8LJ2082vlf770XngUCkFLt3GYRSMwvIIxYSs88/TRqakJuG4XNq6++GtYONhN5oChPx6zgExFFeZqJOjtpBSGW7VxTU4M/PfNMWGlTrZ2PCYjoj8zc1F1iILCO/4dHHoGmRb+5+emGDXh2xYqw0gpmy7p33y2PutATmHXvvlsumMNySotVO2uahj888kjY+z+p1s5tAlqzZs1WAO8hjF5o69at+PVvfgNPS+S97KuvvoqHH34YhhHWUaJNErg74sIytHH07xjW0xxtO3s8Hvz6N7/B1q1hH+eTcu183HbYhRdddJqi65+CwjtfZ8CAAZg7dy5GduGWHYzq6mqsWLkSH34Y/iFuBBxZu3Zt2gdaTxQlJSVHQBS2rVkk7bx5yxYsW7YsqKdxV6RiOx8XMnTvrl1HTj755JEAihHGAcSNjY1Yt24dDuzfD6fTiYLCwi5dFrZu24YX//lPPFZejr17e2RhXSOJ5u/dvTvqUw8yBBg0dOgOAqYgzOM7w21nyYyKigo899xzWLFyZVDTrG5IyXYO+rSXTJrkQTd7Ql3hcrlwytChyM3LQ3Z2NtxuN+rq6rB7166wNkk71448kPKv69at+17Pb87QHSUlJc9AiKvA3GN336DtXFuLHTt3hm+q054UbuegApowYcJIoarrwRxZYLYYwESSpNy4bt26s5JVh3SnpKTkMxZiDIURjSlepHo7d2nmPHHSpFsFcH/Sjtlgbly3bl3SBHyiUFJS4g53zhsXUrydu/UTKCkpKQXR40hguNmjb6TmVP6jpholJSVuFsKRyJ4oXdq52z/YunXrVoP5FwASY1pO5Dnanaf0HzXVWLduXTZJuRFhbrJGTRq1c8g3zrp168rBfDXi739Tc3QimZJj4VRn3bp1Z0HKvyIM7+QoSat2DtvVc+rUqUM1XX8ewKkII4ZCD2giwGcQ3fTemjV/i2G+GSJgwuTJ31GYH+fAGUWRHo8RjLRs5x77Sk+cPPlyYn4CgTDAEQuJiTyC2SKBu/+1du3DkeaTIT5MnDTpDgEskkQ+imCpu5V0b+eIgw1MnDjxWhJiDjNPIqARRKHHs8yNILKB+TMoytOpZPN0olIyZcrNMIzvg+gsMLeEtWJ3ArVz1NE6SktLlaqamu8I5smSeTQR9QdzHoiOgDkfRHXMfICEqGDmdZrP9/dUMVXPcIxx48bZTBbLlcxcQkAxEQ0Ac26mnTNkyBAx/w+EOCECj5FYuAAAAABJRU5ErkJggg==;" vertex="1" parent="1">
          <mxGeometry x="549" y="486" width="46.69" height="44" as="geometry" />
        </mxCell>
        <mxCell id="y71cGGiIrZ94dd1hsWOq-35" value="物流&lt;br&gt;" style="text;html=1;align=center;verticalAlign=middle;resizable=0;points=[];autosize=1;strokeColor=none;fillColor=none;" vertex="1" parent="1">
          <mxGeometry x="552" y="538" width="50" height="30" as="geometry" />
        </mxCell>
        <mxCell id="y71cGGiIrZ94dd1hsWOq-36" value="" style="shape=doubleArrow;direction=south;whiteSpace=wrap;html=1;" vertex="1" parent="1">
          <mxGeometry x="561" y="450" width="20" height="20" as="geometry" />
        </mxCell>
        <mxCell id="y71cGGiIrZ94dd1hsWOq-37" value="" style="shape=doubleArrow;direction=south;whiteSpace=wrap;html=1;" vertex="1" parent="1">
          <mxGeometry x="353" y="450" width="20" height="20" as="geometry" />
        </mxCell>
        <mxCell id="y71cGGiIrZ94dd1hsWOq-38" value="" style="shape=doubleArrow;direction=south;whiteSpace=wrap;html=1;" vertex="1" parent="1">
          <mxGeometry x="148" y="450" width="20" height="20" as="geometry" />
        </mxCell>
        <mxCell id="y71cGGiIrZ94dd1hsWOq-39" value="秒杀管理" style="rounded=1;whiteSpace=wrap;html=1;" vertex="1" parent="1">
          <mxGeometry x="30" y="310" width="120" height="60" as="geometry" />
        </mxCell>
        <mxCell id="y71cGGiIrZ94dd1hsWOq-40" value="" style="shape=doubleArrow;direction=south;whiteSpace=wrap;html=1;" vertex="1" parent="1">
          <mxGeometry x="82" y="283" width="20" height="20" as="geometry" />
        </mxCell>
        <mxCell id="y71cGGiIrZ94dd1hsWOq-41" value="" style="shape=doubleArrow;direction=south;whiteSpace=wrap;html=1;" vertex="1" parent="1">
          <mxGeometry x="82" y="380" width="20" height="20" as="geometry" />
        </mxCell>
      </root>
    </mxGraphModel>
  </diagram>
</mxfile>
